<svg width="99" height="96" viewBox="0 0 99 96" fill="none" xmlns="http://www.w3.org/2000/svg">
<path d="M32.7113 77.2328C32.7113 76.8368 32.3153 76.4407 31.7212 76.4407C31.1271 76.4407 30.731 76.8368 30.731 77.2328C30.731 77.6289 31.1271 78.025 31.7212 77.8269C32.3153 77.8269 32.7113 77.6289 32.7113 77.2328ZM26.5723 76.2427C26.5723 76.6387 26.9684 77.2328 27.5625 77.2328C27.9585 77.4309 28.5526 77.2328 28.7507 76.8368C28.7507 76.4407 28.5526 76.0447 27.9585 75.8466C27.3644 75.6486 26.7703 75.8466 26.5723 76.2427ZM35.4838 76.0447C34.8897 76.0447 34.4936 76.4407 34.4936 77.0348C34.4936 77.4309 35.0877 77.6289 35.6818 77.4309C36.2759 77.2328 36.672 77.0348 36.4739 76.6387C36.4739 76.2427 35.8798 75.8466 35.4838 76.0447ZM48.3559 0C21.0274 0 0.0358887 20.9915 0.0358887 48.32C0.0358887 70.3017 13.7002 89.1148 33.5035 95.8479C36.0779 96.244 36.87 94.6597 36.87 93.4716C36.87 92.0853 36.87 85.3522 36.87 81.1935C36.87 81.1935 23.0077 84.164 20.0372 75.2525C20.0372 75.2525 17.8589 69.5096 14.6903 68.1233C14.6903 68.1233 10.1356 64.9548 14.8884 64.9548C14.8884 64.9548 19.8392 65.3509 22.6116 70.1037C26.9684 77.8269 34.0976 75.6486 37.068 74.2624C37.4641 71.0938 38.6523 68.9155 40.2366 67.5292C29.1467 66.341 17.8589 64.7568 17.8589 45.7456C17.8589 40.2007 19.4431 37.6263 22.6116 34.0617C22.0175 32.6754 20.4333 27.5266 23.2057 20.5954C27.1664 19.4072 36.87 25.9423 36.87 25.9423C40.8307 24.7541 44.9894 24.3581 49.1481 24.3581C53.5048 24.3581 57.6635 24.7541 61.6241 25.9423C61.6241 25.9423 71.1297 19.2092 75.2884 20.5954C78.0609 27.5266 76.2786 32.6754 75.8825 34.0617C79.051 37.6263 81.0314 40.2007 81.0314 45.7456C81.0314 64.7568 69.3474 66.341 58.2576 67.5292C60.0399 69.1135 61.6241 72.084 61.6241 76.8368C61.6241 83.3719 61.4261 91.6893 61.4261 93.2735C61.4261 94.6597 62.4163 96.244 64.9907 95.6499C84.794 89.1148 98.2602 70.3017 98.2602 48.32C98.2602 20.9915 75.8825 0 48.3559 0ZM19.2451 68.3214C18.849 68.5194 19.0471 69.1135 19.2451 69.5096C19.6411 69.7076 20.0372 69.9056 20.4333 69.7076C20.6313 69.5096 20.6313 68.9155 20.2352 68.5194C19.8392 68.3214 19.4431 68.1233 19.2451 68.3214ZM17.0667 66.7371C16.8687 67.1332 17.0667 67.3312 17.4628 67.5292C17.8589 67.7273 18.2549 67.7273 18.453 67.3312C18.453 67.1332 18.2549 66.9351 17.8589 66.7371C17.4628 66.5391 17.2648 66.5391 17.0667 66.7371ZM23.4038 73.8663C23.2057 74.0643 23.2057 74.6584 23.7998 75.0545C24.1959 75.4506 24.79 75.6486 24.988 75.2525C25.1861 75.0545 25.1861 74.4604 24.79 74.0643C24.3939 73.6683 23.7998 73.4702 23.4038 73.8663ZM21.2254 70.8958C20.8293 71.0938 20.8293 71.6879 21.2254 72.084C21.6215 72.4801 22.0175 72.6781 22.4136 72.4801C22.6116 72.282 22.6116 71.6879 22.4136 71.2919C22.0175 70.8958 21.6215 70.6978 21.2254 70.8958Z" fill="#2F2F2F"/>
</svg>
