<svg width="1270" height="274" viewBox="0 0 1270 274" fill="none" xmlns="http://www.w3.org/2000/svg">
<g clip-path="url(#clip0_2_2)">
<path d="M124.907 134.74L124.927 134.858C124.937 134.916 124.882 134.984 124.892 135.043C118.833 130.28 87.1999 104.564 87.0016 88.936C86.7153 68.102 124.414 11 124.414 11C124.414 11 106.22 67.1021 109.688 80.637C111.721 88.5615 135.573 96.3868 140.771 98.8739C131.147 111.304 127.226 118.508 124.907 134.74V134.74Z" fill="#848282" stroke="white" stroke-width="3.5278" stroke-miterlimit="22.9256"/>
<path d="M243.2 134.74L243.179 134.858C243.169 134.916 243.225 134.984 243.215 135.043C249.274 130.28 280.907 104.564 281.105 88.936C281.391 68.102 243.693 11 243.693 11C243.693 11 261.887 67.1021 258.419 80.637C256.386 88.5615 232.534 96.3868 227.336 98.8739C236.96 111.304 240.881 118.508 243.2 134.74V134.74Z" fill="#848282" stroke="white" stroke-width="3.5278" stroke-miterlimit="22.9256"/>
<path d="M184.205 73.0064V122.079H164.553C153.502 122.079 144.541 131.038 144.541 142.091C144.541 153.144 153.5 162.101 164.553 162.101H184.205V173.878H164.732C153.681 173.878 144.72 182.837 144.72 193.89C144.72 204.943 153.679 213.902 164.732 213.902L184.205 213.902V262.97C182.971 262.898 181.748 262.411 180.659 261.507L116.662 208.419C115.165 207.177 114.255 204.996 114.255 202.649V138.513H114.204C119.247 101.451 148.665 73.0064 184.205 73.0064V73.0064ZM164.553 129.32C171.606 129.32 177.324 135.038 177.324 142.091C177.324 149.144 171.606 154.862 164.553 154.862C157.5 154.862 151.783 149.144 151.783 142.091C151.783 135.038 157.5 129.32 164.553 129.32V129.32Z" fill="#848282" stroke="white" stroke-width="3.5278" stroke-miterlimit="22.9256"/>
<path d="M183.901 73.0116V122.079H203.375C214.428 122.079 223.388 131.036 223.388 142.089C223.388 153.142 214.428 162.101 203.376 162.101H183.901V173.878H203.553V173.878C214.606 173.878 223.565 182.837 223.565 193.89C223.565 204.943 214.604 213.902 203.553 213.902L183.901 213.902V262.975C185.135 262.903 186.359 262.416 187.448 261.512L251.445 208.424C252.942 207.182 253.852 205.001 253.852 202.654V138.518H253.902C248.86 101.456 219.442 73.0116 183.901 73.0116V73.0116ZM203.553 206.659C196.5 206.659 190.784 200.937 190.784 193.888C190.784 186.839 196.504 181.118 203.553 181.118C210.602 181.118 216.324 186.839 216.324 193.888C216.324 200.937 210.606 206.659 203.553 206.659Z" fill="#848282" stroke="white" stroke-width="3.5278" stroke-miterlimit="22.9256"/>
<path d="M203.553 206.659C196.5 206.659 190.784 200.938 190.784 193.888C190.784 186.839 196.504 181.118 203.553 181.118C210.602 181.118 216.324 186.839 216.324 193.888C216.324 200.938 210.606 206.659 203.553 206.659Z" fill="#848282" stroke="white" stroke-width="3.5278" stroke-miterlimit="22.9256"/>
<path d="M164.499 155.087C157.446 155.087 151.73 149.365 151.73 142.316C151.73 135.267 157.449 129.546 164.499 129.546C171.548 129.546 177.269 135.267 177.269 142.316C177.269 149.365 171.552 155.087 164.499 155.087Z" fill="#848282" stroke="white" stroke-width="3.5278" stroke-miterlimit="22.9256"/>
<path d="M366.958 216.588C354.494 216.588 343.786 213.78 335.359 208.162C326.758 202.544 320.438 194.82 316.049 184.989C311.66 175.159 309.554 163.748 309.554 150.757C309.554 137.767 311.66 126.356 316.049 116.525C320.438 106.694 326.758 98.9704 335.359 93.3528C343.786 87.7352 354.494 84.9264 366.958 84.9264C379.598 84.9264 390.131 87.7352 398.733 93.3528C407.159 98.9704 413.654 106.694 418.043 116.525C422.256 126.356 424.538 137.767 424.538 150.757C424.538 163.748 422.256 175.159 418.043 184.989C413.654 194.82 407.159 202.544 398.733 208.162C390.131 213.78 379.598 216.588 366.958 216.588ZM366.958 206.758C377.316 206.758 386.093 204.3 392.94 199.56C399.786 194.82 405.052 188.149 408.563 179.899C411.899 171.472 413.654 161.641 413.654 150.757C413.654 139.698 411.899 130.043 408.563 121.616C405.052 113.19 399.786 106.694 392.94 101.955C386.093 97.2149 377.316 94.7572 366.958 94.7572C356.601 94.7572 347.999 97.2149 341.153 101.955C334.306 106.694 329.215 113.19 325.704 121.616C322.193 130.043 320.438 139.698 320.438 150.757C320.262 161.641 322.018 171.472 325.353 179.723C328.864 188.149 334.131 194.82 340.977 199.56C347.999 204.3 356.601 206.758 366.958 206.758V206.758Z" fill="white"/>
<path d="M442.035 213.955V87.5597H489.784C491.013 87.5597 492.242 87.5597 493.646 87.7352C495.051 87.7352 496.631 87.9108 498.211 88.2619C504.53 89.3152 509.972 91.4218 514.537 95.1083C519.101 98.6193 522.436 103.008 524.894 108.45C527.352 113.717 528.581 119.685 528.581 126.18C528.581 132.5 527.352 138.469 524.894 143.911C522.436 149.177 518.925 153.742 514.537 157.253C509.972 160.764 504.53 163.046 498.211 163.924C496.631 164.275 495.051 164.45 493.646 164.45C492.242 164.626 490.838 164.626 489.784 164.626H452.217V213.955H442.035ZM452.217 154.795H489.609C490.486 154.795 491.715 154.795 493.12 154.62C494.524 154.444 495.928 154.268 497.333 154.093C501.897 153.215 505.759 151.284 508.744 148.475C511.728 145.666 514.01 142.331 515.59 138.469C517.17 134.607 517.872 130.394 517.872 126.18C517.872 121.792 517.17 117.754 515.59 113.716C514.01 109.854 511.728 106.519 508.744 103.71C505.759 100.901 501.897 99.1459 497.333 98.0926C495.928 97.9171 494.524 97.566 493.12 97.566C491.715 97.3904 490.486 97.3904 489.609 97.3904H452.217V154.795V154.795Z" fill="white"/>
<path d="M580.807 213.955V97.3904H535.515V87.5597H636.105V97.3904H590.988V213.955H580.807Z" fill="white"/>
<path d="M674.959 216.588C665.655 216.588 657.58 214.482 651.085 210.093C644.589 205.88 639.499 200.087 635.988 192.538C632.652 184.99 630.897 176.212 630.897 166.381C630.897 156.55 632.652 147.773 636.163 140.224C639.674 132.851 644.765 126.883 651.26 122.845C657.931 118.632 665.831 116.525 674.959 116.525C684.439 116.525 692.514 118.632 699.01 122.845C705.68 127.058 710.596 133.027 714.107 140.575C717.442 147.949 719.198 156.55 719.198 166.381C719.198 176.388 717.442 185.165 713.931 192.714C710.596 200.087 705.505 206.055 698.834 210.269C692.339 214.482 684.439 216.588 674.959 216.588V216.588ZM674.959 206.758C686.195 206.758 694.621 203.071 700.063 195.522C705.68 187.974 708.314 178.319 708.314 166.381C708.314 154.268 705.68 144.438 700.063 137.24C694.445 130.043 686.195 126.356 674.959 126.356C667.411 126.356 661.267 128.112 656.351 131.447C651.436 134.958 647.749 139.698 645.292 145.666C642.834 151.635 641.781 158.482 641.781 166.381C641.781 178.494 644.589 188.325 650.207 195.698C655.825 203.071 664.075 206.758 674.959 206.758V206.758Z" fill="white"/>
<path d="M775.344 258.72C770.604 258.72 766.04 258.018 761.3 256.614C756.736 255.385 752.347 253.103 748.31 250.118C744.272 246.958 740.937 242.921 738.128 237.83L747.256 232.388C750.065 238.181 754.103 242.394 759.369 244.852C764.636 247.485 769.902 248.714 775.344 248.714C783.068 248.714 789.213 247.309 793.601 244.325C798.166 241.516 801.326 237.303 803.257 231.686C805.188 226.068 806.241 219.046 806.241 210.62V185.867H807.294V119.158H816.423V210.62C816.423 213.429 816.423 216.062 816.247 218.695C816.072 221.328 815.896 223.786 815.545 226.419C814.492 233.792 812.21 239.761 809.05 244.501C805.714 249.416 801.15 252.927 795.708 255.209C790.09 257.491 783.244 258.72 775.344 258.72V258.72ZM774.818 216.588C766.04 216.588 758.492 214.306 752.172 209.918C746.028 205.529 741.288 199.56 738.128 192.012C734.792 184.463 733.213 175.861 733.213 166.381C733.213 157.077 734.792 148.651 737.952 141.102C741.288 133.554 745.852 127.585 751.996 123.196C757.965 118.807 765.338 116.525 773.94 116.525C782.717 116.525 790.266 118.632 796.235 123.021C802.379 127.234 806.943 133.202 810.103 140.751C813.263 148.3 814.843 156.902 814.843 166.381C814.843 175.861 813.263 184.287 810.103 191.836C806.943 199.56 802.554 205.529 796.586 209.918C790.617 214.306 783.42 216.588 774.818 216.588ZM775.52 206.933C782.542 206.933 788.511 205.178 793.25 201.667C797.815 198.156 801.326 193.24 803.783 187.096C806.065 181.127 807.294 174.105 807.294 166.381C807.294 158.657 806.065 151.635 803.783 145.491C801.326 139.522 797.815 134.782 793.075 131.271C788.511 127.936 782.717 126.18 775.695 126.18C768.498 126.18 762.529 127.936 757.789 131.447C753.225 134.958 749.714 139.873 747.432 145.842C745.15 151.986 744.097 158.833 744.097 166.381C744.097 174.105 745.15 180.952 747.608 187.096C749.89 193.24 753.401 197.98 758.14 201.491C762.705 205.178 768.498 206.933 775.52 206.933V206.933Z" fill="white"/>
<path d="M877.865 258.72C873.125 258.72 868.561 258.018 863.821 256.614C859.257 255.385 854.868 253.103 850.83 250.118C846.793 246.958 843.457 242.921 840.649 237.83L849.777 232.388C852.586 238.181 856.624 242.394 861.89 244.852C867.157 247.485 872.423 248.714 877.865 248.714C885.589 248.714 891.733 247.309 896.122 244.325C900.686 241.516 903.846 237.303 905.777 231.686C907.708 226.068 908.762 219.046 908.762 210.62V185.867H909.815V119.158H918.944V210.62C918.944 213.429 918.944 216.062 918.768 218.695C918.592 221.328 918.417 223.786 918.066 226.419C917.012 233.792 914.73 239.761 911.57 244.501C908.235 249.416 903.671 252.927 898.229 255.209C892.611 257.491 885.765 258.72 877.865 258.72V258.72ZM877.338 216.588C868.561 216.588 861.012 214.306 854.693 209.918C848.548 205.529 843.808 199.56 840.649 192.012C837.313 184.463 835.733 175.861 835.733 166.381C835.733 157.077 837.313 148.651 840.473 141.102C843.808 133.554 848.373 127.585 854.517 123.196C860.486 118.807 867.859 116.525 876.461 116.525C885.238 116.525 892.787 118.632 898.755 123.021C904.9 127.234 909.464 133.202 912.624 140.751C915.784 148.3 917.364 156.902 917.364 166.381C917.364 175.861 915.784 184.287 912.624 191.836C909.464 199.56 905.075 205.529 899.106 209.918C893.138 214.306 885.94 216.588 877.338 216.588ZM878.04 206.933C885.062 206.933 891.031 205.178 895.771 201.667C900.335 198.156 903.846 193.24 906.304 187.096C908.586 181.127 909.815 174.105 909.815 166.381C909.815 158.657 908.586 151.635 906.304 145.491C903.846 139.522 900.335 134.782 895.595 131.271C891.031 127.936 885.238 126.18 878.216 126.18C871.019 126.18 865.05 127.936 860.31 131.447C855.746 134.958 852.235 139.873 849.953 145.842C847.67 151.986 846.617 158.833 846.617 166.381C846.617 174.105 847.671 180.952 850.128 187.096C852.41 193.24 855.921 197.98 860.661 201.491C865.225 205.178 871.019 206.933 878.04 206.933V206.933Z" fill="white"/>
<path d="M945.276 213.955V84.9264H955.458V213.955H945.276Z" fill="white"/>
<path d="M1020.88 216.588C1011.75 216.588 1003.85 214.482 997.355 210.444C990.685 206.406 985.594 200.613 981.907 193.24C978.221 185.692 976.465 176.914 976.465 166.732C976.465 156.375 978.221 147.422 981.907 139.873C985.418 132.5 990.509 126.707 997.18 122.67C1003.68 118.632 1011.57 116.525 1020.53 116.525C1029.83 116.525 1037.73 118.632 1044.23 122.845C1050.72 127.058 1055.64 133.027 1059.15 140.927C1062.48 148.826 1064.06 158.306 1063.89 169.366H1053.53V165.855C1053.18 152.864 1050.2 143.033 1044.75 136.362C1039.14 129.516 1031.06 126.18 1020.7 126.18C1010 126.18 1001.74 129.691 995.951 136.713C990.158 143.735 987.349 153.742 987.349 166.557C987.349 179.372 990.158 189.203 995.951 196.225C1001.74 203.247 1009.99 206.758 1020.53 206.758C1027.9 206.758 1034.22 205.002 1039.84 201.667C1045.28 198.156 1049.67 193.24 1052.83 186.92L1061.96 190.958C1058.1 199.209 1052.65 205.529 1045.46 209.917C1038.26 214.306 1030.01 216.588 1020.88 216.588ZM983.487 169.366V160.237H1058.27V169.366H983.487Z" fill="white"/>
<path d="M1118.28 216.413C1107.4 216.413 1098.44 214.131 1091.24 209.566C1084.22 204.827 1079.83 198.507 1078.08 190.256L1088.44 188.325C1089.84 193.942 1093.35 198.507 1098.79 201.842C1104.24 205.178 1110.91 206.933 1118.81 206.933C1126.71 206.933 1132.85 205.178 1137.59 201.842C1142.15 198.507 1144.44 193.942 1144.44 188.149C1144.44 184.989 1143.73 182.356 1142.33 180.425C1140.93 178.319 1138.12 176.563 1133.9 174.808C1129.69 173.052 1123.37 171.121 1115.12 168.839C1106.17 166.557 1099.32 164.099 1094.4 161.817C1089.49 159.535 1085.98 156.726 1084.05 153.742C1081.94 150.757 1080.89 147.246 1080.89 142.858C1080.89 137.591 1082.47 133.027 1085.45 129.165C1088.44 125.127 1092.65 121.967 1097.92 119.861C1103.36 117.579 1109.5 116.525 1116.52 116.525C1123.55 116.525 1129.87 117.754 1135.48 120.036C1141.1 122.318 1145.67 125.478 1149 129.691C1152.51 133.729 1154.44 138.644 1155.14 144.086L1144.79 145.842C1143.73 139.873 1140.75 134.958 1135.48 131.447C1130.39 127.936 1123.9 126.18 1116.17 126.005C1108.8 126.005 1102.83 127.409 1098.27 130.394C1093.7 133.378 1091.42 137.416 1091.42 142.331C1091.42 145.14 1092.12 147.422 1093.7 149.528C1095.28 151.46 1098.27 153.215 1102.3 154.795C1106.34 156.55 1112.14 158.306 1119.68 160.237C1128.81 162.519 1135.83 164.801 1141.1 167.259C1146.19 169.717 1149.88 172.701 1151.98 176.037C1154.09 179.372 1155.14 183.409 1155.14 188.325C1155.14 197.102 1151.81 203.949 1145.31 208.864C1138.82 213.955 1129.69 216.413 1118.28 216.413V216.413Z" fill="white"/>
</g>
<defs>
<clipPath id="clip0_2_2">
<rect width="1270" height="273.05" fill="white"/>
</clipPath>
</defs>
</svg>
