<?xml version="1.0" encoding="UTF-8"?>
<!DOCTYPE svg PUBLIC "-//W3C//DTD SVG 1.1//EN" "http://www.w3.org/Graphics/SVG/1.1/DTD/svg11.dtd">
<svg xmlns="http://www.w3.org/2000/svg" xml:space="preserve" width="1270mm" height="273.05mm" version="1.1"
    shape-rendering="geometricPrecision" text-rendering="geometricPrecision" image-rendering="optimizeQuality"
    fill-rule="evenodd" clip-rule="evenodd" viewBox="0 0 127000 27305">
    <g id="Layer_x0020_1">
        <metadata />
        <g id="_105553284055232">
            <g>
                <g>
                    <path fill="white" fill-rule="nonzero" stroke="black" stroke-width="352.78"
                        stroke-miterlimit="22.9256"
                        d="M13882.17 13432.02l2.02 11.73c1,5.83 -4.53,12.64 -3.52,18.5 -605.96,-476.21 -3769.22,-3047.89 -3789.05,-4610.66 -28.63,-2083.4 3741.25,-7793.6 3741.25,-7793.6 0,0 -1819.42,5610.21 -1472.63,6963.7 203.31,792.45 2588.48,1574.98 3108.33,1823.69 -962.45,1243 -1354.54,1963.46 -1586.4,3586.64z" />
                    <path fill="white" fill-rule="nonzero" stroke="black" stroke-width="352.78"
                        stroke-miterlimit="22.9256"
                        d="M25711.41 13432.02l-2.02 11.73c-1,5.83 4.53,12.64 3.53,18.5 605.96,-476.21 3769.21,-3047.89 3789.04,-4610.66 28.64,-2083.4 -3741.25,-7793.6 -3741.25,-7793.6 0,0 1819.42,5610.21 1472.63,6963.7 -203.31,792.45 -2588.47,1574.98 -3108.33,1823.69 962.45,1243 1354.55,1963.46 1586.4,3586.64z" />
                </g>
                <g>
                    <path fill="white" fill-rule="nonzero" stroke="black" stroke-width="352.78"
                        stroke-miterlimit="22.9256"
                        d="M19811.98 7258.63l0 4907.26 -1965.18 0c-1105.12,0 -2001.2,895.89 -2001.2,2001.19 0,1105.32 895.88,2001.01 2001.2,2001.01l0 0 1965.18 0 0 1177.74 -1947.32 0c-1105.11,0 -2001.2,895.89 -2001.2,2001.19 0,1105.31 895.89,2001.2 2001.2,2001.2l1947.32 -0.01 0 4906.74c-123.41,-7.16 -245.75,-55.88 -354.67,-146.25l-6399.65 -5308.78c-149.75,-124.2 -240.73,-342.33 -240.73,-577.03l0 -6413.61 -5.05 0c504.26,-3706.24 3446.06,-6550.65 7000.1,-6550.65zm-1965.18 5631.39c705.29,0 1277.06,571.77 1277.06,1277.06 0,705.31 -571.77,1277.08 -1277.06,1277.08 -705.31,0 -1277.08,-571.77 -1277.08,-1277.08 0,-705.29 571.77,-1277.06 1277.08,-1277.06z" />
                    <path fill="white" fill-rule="nonzero" stroke="black" stroke-width="352.78"
                        stroke-miterlimit="22.9256"
                        d="M19781.59 7259.15l0 4906.74 1947.32 0c1105.3,0 2001.39,895.69 2001.39,2001 0,1105.31 -896.09,2001.2 -2001.2,2001.2l-1947.51 0 0 1177.74 1965.19 0 0 -0.01c1105.31,0 2001.19,895.88 2001.19,2001.2 0,1105.31 -896.08,2001.19 -2001.19,2001.19l-1965.19 0.01 0 4907.25c123.41,-7.16 245.76,-55.88 354.67,-146.25l6399.65 -5308.78c149.75,-124.2 240.73,-342.33 240.73,-577.03l0 -6413.6 5.06 0c-504.26,-3706.25 -3446.07,-6550.66 -7000.11,-6550.66zm1965.19 13364.75c-705.3,0 -1276.88,-572.16 -1276.88,-1277.07 0,-704.92 571.96,-1277.07 1276.88,-1277.07 704.91,0 1277.07,572.15 1277.07,1277.07 0,704.91 -571.77,1277.07 -1277.07,1277.07z" />
                </g>
                <g>
                    <path fill="#2B2B2A" fill-rule="nonzero" stroke="black" stroke-width="352.78"
                        stroke-miterlimit="22.9256"
                        d="M21746.78 20623.9c-705.3,0 -1276.88,-572.16 -1276.88,-1277.07 0,-704.92 571.96,-1277.07 1276.88,-1277.07 704.91,0 1277.07,572.15 1277.07,1277.07 0,704.91 -571.77,1277.07 -1277.07,1277.07z" />
                </g>
                <g>
                    <path fill="#2B2B2A" fill-rule="nonzero" stroke="black" stroke-width="352.78"
                        stroke-miterlimit="22.9256"
                        d="M17841.31 15466.68c-705.3,0 -1276.87,-572.15 -1276.87,-1277.07 0,-704.91 571.96,-1277.06 1276.87,-1277.06 704.92,0 1277.07,572.15 1277.07,1277.06 0,704.92 -571.76,1277.07 -1277.07,1277.07z" />
                </g>
            </g>
            <path fill="#2B2B2A" fill-rule="nonzero"
                d="M38087.29 21616.82c-1246.4,0 -2317.25,-280.87 -3159.89,-842.63 -860.19,-561.76 -1492.17,-1334.18 -1931.04,-2317.25 -438.87,-983.08 -649.53,-2124.15 -649.53,-3423.21 0,-1299.07 210.66,-2440.13 649.53,-3423.21 438.87,-983.08 1070.85,-1755.49 1931.04,-2317.25 842.64,-561.76 1913.49,-842.64 3159.89,-842.64 1263.95,0 2317.25,280.88 3177.44,842.64 842.63,561.76 1492.16,1334.17 1931.04,2317.25 421.32,983.08 649.53,2124.14 649.53,3423.21 0,1299.06 -228.21,2440.13 -649.53,3423.21 -438.88,983.07 -1088.41,1755.49 -1931.04,2317.25 -860.19,561.76 -1913.49,842.63 -3177.44,842.63zm0 -983.07c1035.74,0 1913.48,-245.77 2598.12,-719.75 684.65,-473.99 1211.29,-1141.07 1562.39,-1966.15 333.55,-842.64 509.09,-1825.72 509.09,-2914.12 0,-1105.96 -175.54,-2071.48 -509.09,-2914.12 -351.1,-842.63 -877.74,-1492.17 -1562.39,-1966.15 -684.64,-473.98 -1562.38,-719.75 -2598.12,-719.75 -1035.74,0 -1895.94,245.77 -2580.58,719.75 -684.64,473.98 -1193.73,1123.52 -1544.83,1966.15 -351.1,842.64 -526.65,1808.16 -526.65,2914.12 -17.55,1088.4 158,2071.48 491.54,2896.56 351.1,842.64 877.75,1509.72 1562.39,1983.71 702.19,473.98 1562.39,719.75 2598.13,719.75z" />
            <path id="1" fill="#2B2B2A" fill-rule="nonzero"
                d="M45594.94 21353.5l0 -12639.54 4774.94 0c122.89,0 245.77,0 386.21,17.55 140.44,0 298.43,17.56 456.43,52.67 631.98,105.33 1176.18,315.99 1632.61,684.64 456.42,351.1 789.97,789.97 1035.74,1334.17 245.77,526.65 368.65,1123.52 368.65,1773.05 0,631.98 -122.88,1228.84 -368.65,1773.05 -245.77,526.64 -596.87,983.07 -1035.74,1334.17 -456.43,351.1 -1000.63,579.31 -1632.61,667.09 -158,35.11 -315.99,52.66 -456.43,52.66 -140.44,17.56 -280.88,17.56 -386.21,17.56l-3756.75 0 0 4932.93 -1018.19 0zm1018.19 -5916.01l3739.2 0c87.77,0 210.66,0 351.1,-17.55 140.44,-17.56 280.87,-35.11 421.31,-52.67 456.43,-87.77 842.64,-280.88 1141.07,-561.75 298.44,-280.88 526.65,-614.43 684.65,-1000.64 157.99,-386.2 228.21,-807.52 228.21,-1228.84 0,-438.87 -70.22,-842.64 -228.21,-1246.4 -158,-386.21 -386.21,-719.75 -684.65,-1000.63 -298.43,-280.88 -684.64,-456.43 -1141.07,-561.76 -140.44,-17.55 -280.87,-52.66 -421.31,-52.66 -140.44,-17.56 -263.33,-17.56 -351.1,-17.56l-3739.2 0 0 5740.46z" />
            <polygon id="2" fill="#2B2B2A" fill-rule="nonzero"
                points="59472.11,21353.5 59472.11,9697.03 54942.94,9697.03 54942.94,8713.96 65001.91,8713.96 65001.91,9697.03 60490.29,9697.03 60490.29,21353.5 " />
            <path id="3" fill="#2B2B2A" fill-rule="nonzero"
                d="M68887.4 21616.82c-930.41,0 -1737.94,-210.66 -2387.47,-649.53 -649.53,-421.32 -1158.62,-1000.63 -1509.72,-1755.49 -333.54,-754.86 -509.09,-1632.61 -509.09,-2615.68 0,-983.08 175.55,-1860.82 526.64,-2615.69 351.1,-737.3 860.2,-1334.17 1509.73,-1737.93 667.08,-421.32 1457.06,-631.98 2369.91,-631.98 947.97,0 1755.49,210.66 2405.03,631.98 667.08,421.31 1158.62,1018.18 1509.72,1773.04 333.54,737.31 509.09,1597.5 509.09,2580.58 0,1000.63 -175.55,1878.37 -526.65,2633.23 -333.54,737.31 -842.63,1334.18 -1509.72,1755.5 -649.53,421.31 -1439.5,631.97 -2387.47,631.97zm0 -983.07c1123.52,0 1966.15,-368.66 2510.36,-1123.52 561.75,-754.86 825.08,-1720.38 825.08,-2914.11 0,-1211.29 -263.33,-2194.37 -825.08,-2914.12 -561.76,-719.75 -1386.84,-1088.4 -2510.36,-1088.4 -754.86,0 -1369.28,175.54 -1860.82,509.09 -491.54,351.1 -860.19,825.08 -1105.96,1421.95 -245.77,596.86 -351.1,1281.51 -351.1,2071.48 0,1211.29 280.88,2194.36 842.64,2931.67 561.76,737.3 1386.84,1105.96 2475.24,1105.96z" />
            <path id="4" fill="#2B2B2A" fill-rule="nonzero"
                d="M78925.89 25830c-473.99,0 -930.41,-70.22 -1404.4,-210.65 -456.42,-122.89 -895.3,-351.1 -1299.06,-649.54 -403.76,-315.99 -737.31,-719.75 -1018.19,-1228.84l912.86 -544.2c280.88,579.31 684.64,1000.63 1211.29,1246.4 526.65,263.32 1053.29,386.2 1597.5,386.2 772.41,0 1386.84,-140.44 1825.71,-438.87 456.43,-280.88 772.42,-702.2 965.52,-1263.95 193.1,-561.76 298.43,-1263.96 298.43,-2106.59l0 -2475.25 105.33 0 0 -6670.87 912.86 0 0 9146.12c0,280.88 0,544.2 -17.56,807.52 -17.55,263.33 -35.11,509.1 -70.22,772.42 -105.33,737.31 -333.54,1334.17 -649.53,1808.16 -333.54,491.53 -789.97,842.63 -1334.17,1070.85 -561.76,228.21 -1246.4,351.09 -2036.37,351.09zm-52.67 -4213.18c-877.74,0 -1632.6,-228.21 -2264.58,-667.08 -614.42,-438.88 -1088.41,-1035.74 -1404.4,-1790.6 -333.54,-754.87 -491.53,-1615.06 -491.53,-2563.02 0,-930.41 157.99,-1773.05 473.98,-2527.91 333.54,-754.86 789.97,-1351.73 1404.39,-1790.6 596.87,-438.88 1334.18,-667.09 2194.37,-667.09 877.74,0 1632.61,210.66 2229.47,649.53 614.43,421.32 1070.85,1018.19 1386.84,1773.05 315.99,754.86 473.98,1615.05 473.98,2563.02 0,947.96 -157.99,1790.6 -473.98,2545.46 -315.99,772.42 -754.86,1369.28 -1351.73,1808.16 -596.86,438.87 -1316.62,667.08 -2176.81,667.08zm70.22 -965.52c702.2,0 1299.07,-175.55 1773.05,-526.64 456.43,-351.1 807.53,-842.64 1053.29,-1457.06 228.22,-596.87 351.1,-1299.07 351.1,-2071.48 0,-772.42 -122.88,-1474.62 -351.1,-2089.04 -245.76,-596.87 -596.86,-1070.85 -1070.85,-1421.95 -456.42,-333.54 -1035.74,-509.09 -1737.93,-509.09 -719.75,0 -1316.62,175.55 -1790.6,526.65 -456.43,351.1 -807.53,842.63 -1035.74,1439.5 -228.22,614.42 -333.55,1299.07 -333.55,2053.93 0,772.41 105.33,1457.06 351.1,2071.48 228.21,614.42 579.31,1088.4 1053.3,1439.5 456.42,368.65 1035.74,544.2 1737.93,544.2z" />
            <path id="5" fill="#2B2B2A" fill-rule="nonzero"
                d="M89177.96 25830c-473.99,0 -930.41,-70.22 -1404.4,-210.65 -456.42,-122.89 -895.3,-351.1 -1299.06,-649.54 -403.76,-315.99 -737.31,-719.75 -1018.19,-1228.84l912.86 -544.2c280.88,579.31 684.64,1000.63 1211.29,1246.4 526.65,263.32 1053.29,386.2 1597.5,386.2 772.41,0 1386.84,-140.44 1825.71,-438.87 456.43,-280.88 772.42,-702.2 965.52,-1263.95 193.1,-561.76 298.43,-1263.96 298.43,-2106.59l0 -2475.25 105.33 0 0 -6670.87 912.86 0 0 9146.12c0,280.88 0,544.2 -17.56,807.52 -17.55,263.33 -35.11,509.1 -70.22,772.42 -105.33,737.31 -333.54,1334.17 -649.53,1808.16 -333.54,491.53 -789.97,842.63 -1334.17,1070.85 -561.76,228.21 -1246.4,351.09 -2036.37,351.09zm-52.67 -4213.18c-877.74,0 -1632.6,-228.21 -2264.58,-667.08 -614.42,-438.88 -1088.41,-1035.74 -1404.4,-1790.6 -333.54,-754.87 -491.53,-1615.06 -491.53,-2563.02 0,-930.41 157.99,-1773.05 473.98,-2527.91 333.54,-754.86 789.97,-1351.73 1404.39,-1790.6 596.87,-438.88 1334.18,-667.09 2194.37,-667.09 877.74,0 1632.61,210.66 2229.47,649.53 614.43,421.32 1070.85,1018.19 1386.84,1773.05 315.99,754.86 473.98,1615.05 473.98,2563.02 0,947.96 -157.99,1790.6 -473.98,2545.46 -315.99,772.42 -754.86,1369.28 -1351.73,1808.16 -596.86,438.87 -1316.62,667.08 -2176.81,667.08zm70.22 -965.52c702.2,0 1299.07,-175.55 1773.05,-526.64 456.43,-351.1 807.53,-842.64 1053.29,-1457.06 228.22,-596.87 351.1,-1299.07 351.1,-2071.48 0,-772.42 -122.88,-1474.62 -351.1,-2089.04 -245.76,-596.87 -596.86,-1070.85 -1070.85,-1421.95 -456.42,-333.54 -1035.74,-509.09 -1737.93,-509.09 -719.75,0 -1316.62,175.55 -1790.6,526.65 -456.43,351.1 -807.53,842.63 -1035.74,1439.5 -228.22,614.42 -333.55,1299.07 -333.55,2053.93 0,772.41 105.33,1457.06 351.1,2071.48 228.21,614.42 579.31,1088.4 1053.3,1439.5 456.42,368.65 1035.74,544.2 1737.93,544.2z" />
            <polygon id="6" fill="#2B2B2A" fill-rule="nonzero"
                points="95919.04,21353.5 95919.04,8450.63 96937.23,8450.63 96937.23,21353.5 " />
            <path id="7" fill="#2B2B2A" fill-rule="nonzero"
                d="M103479.36 21616.82c-912.85,0 -1702.83,-210.66 -2352.36,-614.42 -667.08,-403.76 -1176.18,-983.07 -1544.83,-1720.38 -368.65,-754.86 -544.2,-1632.61 -544.2,-2650.79 0,-1035.74 175.55,-1931.04 544.2,-2685.91 351.1,-737.3 860.19,-1316.61 1527.28,-1720.38 649.53,-403.76 1439.5,-614.42 2334.8,-614.42 930.41,0 1720.38,210.66 2369.92,631.98 649.53,421.31 1141.07,1018.18 1492.16,1808.15 333.55,789.97 491.54,1737.94 473.99,2843.9l-1035.74 0 0 -351.1c-35.11,-1299.06 -333.55,-2282.14 -877.75,-2949.22 -561.76,-684.65 -1369.28,-1018.19 -2405.02,-1018.19 -1070.85,0 -1895.93,351.1 -2475.25,1053.3 -579.31,702.19 -860.19,1702.82 -860.19,2984.33 0,1281.51 280.88,2264.59 860.19,2966.78 579.32,702.2 1404.4,1053.3 2457.69,1053.3 737.31,0 1369.29,-175.55 1931.04,-509.09 544.21,-351.1 983.08,-842.64 1299.07,-1474.62l912.85 403.77c-386.21,825.08 -930.41,1457.05 -1650.16,1895.93 -719.75,438.87 -1544.83,667.08 -2457.69,667.08zm-3739.2 -4722.27l0 -912.86 7478.4 0 0 912.86 -7478.4 0z" />
            <path id="8" fill="#2B2B2A" fill-rule="nonzero"
                d="M113219.41 21599.27c-1088.4,0 -1983.7,-228.22 -2703.45,-684.64 -702.2,-473.99 -1141.07,-1105.96 -1316.62,-1931.04l1035.74 -193.11c140.44,561.76 491.53,1018.19 1035.74,1351.73 544.2,333.54 1211.29,509.09 2001.26,509.09 789.97,0 1404.39,-175.55 1878.37,-509.09 456.43,-333.54 684.65,-789.97 684.65,-1369.28 0,-315.99 -70.22,-579.32 -210.66,-772.42 -140.44,-210.66 -421.32,-386.21 -842.64,-561.76 -421.32,-175.55 -1053.29,-368.65 -1878.38,-596.86 -895.3,-228.22 -1579.94,-473.99 -2071.48,-702.2 -491.53,-228.22 -842.63,-509.09 -1035.74,-807.53 -210.65,-298.43 -315.98,-649.53 -315.98,-1088.4 0,-526.65 157.99,-983.08 456.42,-1369.29 298.44,-403.76 719.76,-719.75 1246.4,-930.41 544.21,-228.21 1158.63,-333.54 1860.82,-333.54 702.2,0 1334.18,122.88 1895.94,351.1 561.75,228.21 1018.18,544.2 1351.72,965.52 351.1,403.76 544.21,895.3 614.43,1439.5l-1035.74 175.55c-105.33,-596.87 -403.77,-1088.4 -930.41,-1439.5 -509.1,-351.1 -1158.63,-526.65 -1931.05,-544.2 -737.3,0 -1334.17,140.43 -1790.6,438.87 -456.43,298.43 -684.64,702.2 -684.64,1193.73 0,280.88 70.22,509.1 228.21,719.75 158,193.11 456.43,368.66 860.2,526.65 403.76,175.55 983.07,351.1 1737.93,544.2 912.86,228.22 1615.06,456.43 2141.7,702.2 509.1,245.77 877.75,544.2 1088.41,877.75 210.66,333.54 315.99,737.3 315.99,1228.84 0,877.75 -333.55,1562.39 -983.08,2053.93 -649.53,509.09 -1562.39,754.86 -2703.46,754.86z" />
        </g>
    </g>
</svg>