<svg width="90" height="89" viewBox="0 0 90 89" fill="none" xmlns="http://www.w3.org/2000/svg">
<path d="M19.1495 56.2413V46.9338H9.84197C4.69312 46.9338 0.534424 51.0925 0.534424 56.2413C0.534424 61.1922 4.69312 65.5489 9.84197 65.5489C14.7928 65.5489 19.1495 61.1922 19.1495 56.2413ZM23.7043 56.2413V79.4112C23.7043 84.5601 28.061 88.7187 33.0118 88.7187C38.1607 88.7187 42.3194 84.5601 42.3194 79.4112V56.2413C42.3194 51.0925 38.1607 46.9338 33.0118 46.9338C28.061 46.9338 23.7043 51.0925 23.7043 56.2413ZM33.0118 18.8131H42.3194V9.50558C42.3194 4.35672 38.1607 0 33.0118 0C28.061 0 23.7043 4.35672 23.7043 9.50558C23.7043 14.4564 28.061 18.8131 33.0118 18.8131ZM33.0118 23.3679H9.84197C4.69312 23.3679 0.534424 27.5266 0.534424 32.6754C0.534424 37.8243 4.69312 41.983 9.84197 41.983H33.0118C38.1607 41.983 42.3194 37.8243 42.3194 32.6754C42.3194 27.5266 38.1607 23.3679 33.0118 23.3679ZM70.44 32.6754V41.983H79.7476C84.8964 41.983 89.2532 37.8243 89.2532 32.6754C89.2532 27.5266 84.8964 23.3679 79.7476 23.3679C74.7968 23.3679 70.44 27.5266 70.44 32.6754ZM65.8853 32.6754V9.50558C65.8853 4.35672 61.7266 0 56.5777 0C51.4289 0 47.2702 4.35672 47.2702 9.50558V32.6754C47.2702 37.8243 51.4289 41.983 56.5777 41.983C61.7266 41.983 65.8853 37.8243 65.8853 32.6754ZM56.5777 70.1037H47.2702V79.4112C47.2702 84.5601 51.4289 88.7187 56.5777 88.7187C61.7266 88.7187 65.8853 84.5601 65.8853 79.4112C65.8853 74.4604 61.7266 70.1037 56.5777 70.1037ZM56.5777 65.5489H79.7476C84.8964 65.5489 89.2532 61.1922 89.2532 56.2413C89.2532 51.0925 84.8964 46.9338 79.7476 46.9338H56.5777C51.4289 46.9338 47.2702 51.0925 47.2702 56.2413C47.2702 61.1922 51.4289 65.5489 56.5777 65.5489Z" fill="#2F2F2F"/>
</svg>
